<?xml version="1.0" encoding="UTF-8"?>
<svg width="674px" height="674px" viewBox="0 0 674 674" version="1.1" xmlns="http://www.w3.org/2000/svg" xmlns:xlink="http://www.w3.org/1999/xlink">
    <title>3 - Rims</title>
    <g id="Template---App-Icons" stroke="none" stroke-width="1" fill="none" fill-rule="evenodd">
        <g id="3---Rims" transform="translate(-175, -175)" fill="#8B8B8B">
            <g id="Straight-Rims" transform="translate(175, 175)">
                <g id="Group" transform="translate(99, 98)">
                    <g transform="translate(0, 214)">
                        <path d="M342.464466,40.4644661 L350.535534,48.5355339 C351.473216,49.4732158 352.744985,50 354.071068,50 L471,50 C473.761424,50 476,47.7614237 476,45 L476,25 L476,25 L476,5 C476,2.23857625 473.761424,-8.8817842e-16 471,0 L354.071068,-1.77635684e-15 C352.744985,-1.77635684e-15 351.473216,0.526784202 350.535534,1.46446609 L342.464466,9.53553391 C341.526784,10.4732158 341,11.7449854 341,13.0710678 L341,36.9289322 C341,38.2550146 341.526784,39.5267842 342.464466,40.4644661 Z" id="Path-2"></path>
                        <path d="M1.46446609,40.4644661 L9.53553391,48.5355339 C10.4732158,49.4732158 11.7449854,50 13.0710678,50 L130,50 C132.761424,50 135,47.7614237 135,45 L135,25 L135,25 L135,5 C135,2.23857625 132.761424,-8.8817842e-16 130,0 L13.0710678,-1.77635684e-15 C11.7449854,-1.77635684e-15 10.4732158,0.526784202 9.53553391,1.46446609 L1.46446609,9.53553391 C0.526784202,10.4732158 0,11.7449854 0,13.0710678 L5.32907052e-15,36.9289322 C5.32907052e-15,38.2550146 0.526784202,39.5267842 1.46446609,40.4644661 Z" id="Path-2-Copy" transform="translate(67.5, 25) scale(-1, 1) translate(-67.5, -25)"></path>
                    </g>
                    <g id="Group-Copy" transform="translate(238, 239) rotate(90) translate(-238, -239)translate(0, 214)">
                        <path d="M342.464466,40.4644661 L350.535534,48.5355339 C351.473216,49.4732158 352.744985,50 354.071068,50 L471,50 C473.761424,50 476,47.7614237 476,45 L476,25 L476,25 L476,5 C476,2.23857625 473.761424,-8.8817842e-16 471,0 L354.071068,-1.77635684e-15 C352.744985,-1.77635684e-15 351.473216,0.526784202 350.535534,1.46446609 L342.464466,9.53553391 C341.526784,10.4732158 341,11.7449854 341,13.0710678 L341,36.9289322 C341,38.2550146 341.526784,39.5267842 342.464466,40.4644661 Z" id="Path-2"></path>
                        <path d="M1.46446609,40.4644661 L9.53553391,48.5355339 C10.4732158,49.4732158 11.7449854,50 13.0710678,50 L130,50 C132.761424,50 135,47.7614237 135,45 L135,25 L135,25 L135,5 C135,2.23857625 132.761424,-8.8817842e-16 130,0 L13.0710678,-1.77635684e-15 C11.7449854,-1.77635684e-15 10.4732158,0.526784202 9.53553391,1.46446609 L1.46446609,9.53553391 C0.526784202,10.4732158 0,11.7449854 0,13.0710678 L5.32907052e-15,36.9289322 C5.32907052e-15,38.2550146 0.526784202,39.5267842 1.46446609,40.4644661 Z" id="Path-2-Copy" transform="translate(67.5, 25) scale(-1, 1) translate(-67.5, -25)"></path>
                    </g>
                </g>
                <g id="Group-Copy-2" transform="translate(337, 336.5) rotate(45) translate(-337, -336.5)translate(99, 98)">
                    <g id="Group" transform="translate(0, 214)">
                        <path d="M342.464466,40.4644661 L350.535534,48.5355339 C351.473216,49.4732158 352.744985,50 354.071068,50 L471,50 C473.761424,50 476,47.7614237 476,45 L476,25 L476,25 L476,5 C476,2.23857625 473.761424,-8.8817842e-16 471,0 L354.071068,-1.77635684e-15 C352.744985,-1.77635684e-15 351.473216,0.526784202 350.535534,1.46446609 L342.464466,9.53553391 C341.526784,10.4732158 341,11.7449854 341,13.0710678 L341,36.9289322 C341,38.2550146 341.526784,39.5267842 342.464466,40.4644661 Z" id="Path-2"></path>
                        <path d="M1.46446609,40.4644661 L9.53553391,48.5355339 C10.4732158,49.4732158 11.7449854,50 13.0710678,50 L130,50 C132.761424,50 135,47.7614237 135,45 L135,25 L135,25 L135,5 C135,2.23857625 132.761424,-8.8817842e-16 130,0 L13.0710678,-1.77635684e-15 C11.7449854,-1.77635684e-15 10.4732158,0.526784202 9.53553391,1.46446609 L1.46446609,9.53553391 C0.526784202,10.4732158 0,11.7449854 0,13.0710678 L5.32907052e-15,36.9289322 C5.32907052e-15,38.2550146 0.526784202,39.5267842 1.46446609,40.4644661 Z" id="Path-2-Copy" transform="translate(67.5, 25) scale(-1, 1) translate(-67.5, -25)"></path>
                    </g>
                    <g id="Group-Copy" transform="translate(238, 239) rotate(90) translate(-238, -239)translate(0, 214)">
                        <path d="M342.464466,40.4644661 L350.535534,48.5355339 C351.473216,49.4732158 352.744985,50 354.071068,50 L471,50 C473.761424,50 476,47.7614237 476,45 L476,25 L476,25 L476,5 C476,2.23857625 473.761424,-8.8817842e-16 471,0 L354.071068,-1.77635684e-15 C352.744985,-1.77635684e-15 351.473216,0.526784202 350.535534,1.46446609 L342.464466,9.53553391 C341.526784,10.4732158 341,11.7449854 341,13.0710678 L341,36.9289322 C341,38.2550146 341.526784,39.5267842 342.464466,40.4644661 Z" id="Path-2"></path>
                        <path d="M1.46446609,40.4644661 L9.53553391,48.5355339 C10.4732158,49.4732158 11.7449854,50 13.0710678,50 L130,50 C132.761424,50 135,47.7614237 135,45 L135,25 L135,25 L135,5 C135,2.23857625 132.761424,-8.8817842e-16 130,0 L13.0710678,-1.77635684e-15 C11.7449854,-1.77635684e-15 10.4732158,0.526784202 9.53553391,1.46446609 L1.46446609,9.53553391 C0.526784202,10.4732158 0,11.7449854 0,13.0710678 L5.32907052e-15,36.9289322 C5.32907052e-15,38.2550146 0.526784202,39.5267842 1.46446609,40.4644661 Z" id="Path-2-Copy" transform="translate(67.5, 25) scale(-1, 1) translate(-67.5, -25)"></path>
                    </g>
                </g>
            </g>
            <g id="Triangles" transform="translate(181, 181)">
                <g id="Group" transform="translate(96, 97)">
                    <g transform="translate(106, 0)">
                        <path d="M66.2847669,35.2119173 L91.5144373,98.2860932 C93.5655714,103.413928 91.0714123,109.233633 85.9435771,111.284767 C84.7623744,111.757248 83.5018647,112 82.2296704,112 L31.7703296,112 C26.2474821,112 21.7703296,107.522847 21.7703296,102 C21.7703296,100.727806 22.0130816,99.467296 22.4855627,98.2860932 L47.7152331,35.2119173 C49.7663672,30.0840821 55.5860716,27.5899231 60.7139068,29.6410571 C63.2549333,30.6574678 65.2683563,32.6708907 66.2847669,35.2119173 Z" id="Triangle" transform="translate(57, 62) rotate(157.5) translate(-57, -62)"></path>
                        <path d="M210.284767,380.211917 L235.514437,443.286093 C237.565571,448.413928 235.071412,454.233633 229.943577,456.284767 C228.762374,456.757248 227.501865,457 226.22967,457 L175.77033,457 C170.247482,457 165.77033,452.522847 165.77033,447 C165.77033,445.727806 166.013082,444.467296 166.485563,443.286093 L191.715233,380.211917 C193.766367,375.084082 199.586072,372.589923 204.713907,374.641057 C207.254933,375.657468 209.268356,377.670891 210.284767,380.211917 Z" id="Triangle-Copy" transform="translate(201, 407) rotate(337.5) translate(-201, -407)"></path>
                    </g>
                    <g id="Group-Copy-3" transform="translate(235, 234.5) rotate(90) translate(-235, -234.5)translate(106, 0)">
                        <path d="M66.2847669,35.2119173 L91.5144373,98.2860932 C93.5655714,103.413928 91.0714123,109.233633 85.9435771,111.284767 C84.7623744,111.757248 83.5018647,112 82.2296704,112 L31.7703296,112 C26.2474821,112 21.7703296,107.522847 21.7703296,102 C21.7703296,100.727806 22.0130816,99.467296 22.4855627,98.2860932 L47.7152331,35.2119173 C49.7663672,30.0840821 55.5860716,27.5899231 60.7139068,29.6410571 C63.2549333,30.6574678 65.2683563,32.6708907 66.2847669,35.2119173 Z" id="Triangle" transform="translate(57, 62) rotate(157.5) translate(-57, -62)"></path>
                        <path d="M210.284767,380.211917 L235.514437,443.286093 C237.565571,448.413928 235.071412,454.233633 229.943577,456.284767 C228.762374,456.757248 227.501865,457 226.22967,457 L175.77033,457 C170.247482,457 165.77033,452.522847 165.77033,447 C165.77033,445.727806 166.013082,444.467296 166.485563,443.286093 L191.715233,380.211917 C193.766367,375.084082 199.586072,372.589923 204.713907,374.641057 C207.254933,375.657468 209.268356,377.670891 210.284767,380.211917 Z" id="Triangle-Copy" transform="translate(201, 407) rotate(337.5) translate(-201, -407)"></path>
                    </g>
                </g>
                <g id="Group-Copy-4" transform="translate(331, 331.5) rotate(45) translate(-331, -331.5)translate(96, 97)">
                    <g id="Group" transform="translate(106, 0)">
                        <path d="M66.2847669,35.2119173 L91.5144373,98.2860932 C93.5655714,103.413928 91.0714123,109.233633 85.9435771,111.284767 C84.7623744,111.757248 83.5018647,112 82.2296704,112 L31.7703296,112 C26.2474821,112 21.7703296,107.522847 21.7703296,102 C21.7703296,100.727806 22.0130816,99.467296 22.4855627,98.2860932 L47.7152331,35.2119173 C49.7663672,30.0840821 55.5860716,27.5899231 60.7139068,29.6410571 C63.2549333,30.6574678 65.2683563,32.6708907 66.2847669,35.2119173 Z" id="Triangle" transform="translate(57, 62) rotate(157.5) translate(-57, -62)"></path>
                        <path d="M210.284767,380.211917 L235.514437,443.286093 C237.565571,448.413928 235.071412,454.233633 229.943577,456.284767 C228.762374,456.757248 227.501865,457 226.22967,457 L175.77033,457 C170.247482,457 165.77033,452.522847 165.77033,447 C165.77033,445.727806 166.013082,444.467296 166.485563,443.286093 L191.715233,380.211917 C193.766367,375.084082 199.586072,372.589923 204.713907,374.641057 C207.254933,375.657468 209.268356,377.670891 210.284767,380.211917 Z" id="Triangle-Copy" transform="translate(201, 407) rotate(337.5) translate(-201, -407)"></path>
                    </g>
                    <g id="Group-Copy-3" transform="translate(235, 234.5) rotate(90) translate(-235, -234.5)translate(106, 0)">
                        <path d="M66.2847669,35.2119173 L91.5144373,98.2860932 C93.5655714,103.413928 91.0714123,109.233633 85.9435771,111.284767 C84.7623744,111.757248 83.5018647,112 82.2296704,112 L31.7703296,112 C26.2474821,112 21.7703296,107.522847 21.7703296,102 C21.7703296,100.727806 22.0130816,99.467296 22.4855627,98.2860932 L47.7152331,35.2119173 C49.7663672,30.0840821 55.5860716,27.5899231 60.7139068,29.6410571 C63.2549333,30.6574678 65.2683563,32.6708907 66.2847669,35.2119173 Z" id="Triangle" transform="translate(57, 62) rotate(157.5) translate(-57, -62)"></path>
                        <path d="M210.284767,380.211917 L235.514437,443.286093 C237.565571,448.413928 235.071412,454.233633 229.943577,456.284767 C228.762374,456.757248 227.501865,457 226.22967,457 L175.77033,457 C170.247482,457 165.77033,452.522847 165.77033,447 C165.77033,445.727806 166.013082,444.467296 166.485563,443.286093 L191.715233,380.211917 C193.766367,375.084082 199.586072,372.589923 204.713907,374.641057 C207.254933,375.657468 209.268356,377.670891 210.284767,380.211917 Z" id="Triangle-Copy" transform="translate(201, 407) rotate(337.5) translate(-201, -407)"></path>
                    </g>
                </g>
            </g>
        </g>
    </g>
</svg>