<?xml version="1.0" encoding="UTF-8"?>
<svg width="818px" height="880px" viewBox="0 0 818 880" version="1.1" xmlns="http://www.w3.org/2000/svg" xmlns:xlink="http://www.w3.org/1999/xlink">
    <title>1 - Outer Wheel</title>
    <g id="Template---App-Icons" stroke="none" stroke-width="1" fill="none" fill-rule="evenodd">
        <g id="Group" transform="translate(-103, -41)" fill="#262626">
            <g id="Group" transform="translate(103, 41)">
                <circle id="Outer-Wheel" cx="409" cy="471" r="409"></circle>
                <g id="Top-Button" transform="translate(281, 0)">
                    <path d="M7.16796875,17.8227292 C47.4453125,5.94090974 87.7226562,0 128,0 C168.277344,0 208.554688,5.94090974 248.832031,17.8227292 L248.831825,17.8234294 C253.082076,19.0783968 255.999393,22.9810631 256,27.4127197 L256,56.5997314 C256.000269,62.1225789 251.523334,66.5999494 246.000487,66.6002183 C245.085084,66.6002628 244.174009,66.4746155 243.292789,66.2267966 C204.861979,55.4087193 166.43099,50 128,50 C89.5690104,50 51.1380208,55.4087193 12.7070312,66.226158 L12.7072108,66.2267966 C7.39059845,67.7219478 1.86857297,64.6240415 0.373421712,59.3074291 C0.125602772,58.4262091 -4.45536277e-05,57.5151346 1.18506538e-08,56.5997314 L9.38772562e-08,27.4127197 C0.000607335176,22.9810631 2.91792399,19.0783968 7.16817549,17.8234294 Z" id="Path"></path>
                    <path d="M128,49 C118,49 108,49.6666667 98,51 C101.581298,51.596883 104.000645,54.9839681 103.403762,58.5652663 C102.979609,61.1101846 101.106019,63.1717282 98.6131116,63.8365036 L98,64 L98,64 C108,64 118,64 128,64 C138,64 148,64 158,64 L157.386888,63.8365036 C153.878781,62.9010084 151.793268,59.2987571 152.728763,55.7906501 C153.393538,53.2977424 155.455082,51.4241531 158,51 L158,51 L158,51 C148,49.6666667 138,49 128,49 Z" id="Path"></path>
                </g>
                <g transform="translate(26, 88)">
                    <path d="M15.8700758,58.2920336 C27.9837102,67.4576961 39.3603516,77.3603516 50,88 C60.6396484,98.6396484 70.5423039,110.01629 79.7079664,122.129924 L79.7071601,122.130534 C86.3724464,130.938561 98.9160451,132.675596 107.724072,126.010309 C108.455555,125.456775 109.148089,124.853572 109.796769,124.204972 L129.213782,104.786047 C136.177628,97.8194401 137.032037,86.8195824 131.227481,78.861196 C121.089507,64.9690871 110.014648,52.0146484 98,40 C85.9853516,27.9853516 73.0309129,16.9104933 59.136684,6.77542533 L59.138804,6.77251877 C51.1804176,0.967963192 40.1805599,1.82237152 33.2139527,8.78621834 L13.7950281,28.2032313 C5.98502297,36.0141978 5.98580232,48.6774974 13.7967688,56.4875025 C14.4454486,57.1361025 15.1379826,57.7393058 15.8694656,58.2928399 Z" id="Path-Copy" transform="translate(69, 69) scale(-1, 1) translate(-69, -69)"></path>
                    <path d="M643.870076,58.2920336 C655.98371,67.4576961 667.360352,77.3603516 678,88 C688.639648,98.6396484 698.542304,110.01629 707.707966,122.129924 L707.70716,122.130534 C714.372446,130.938561 726.916045,132.675596 735.724072,126.010309 C736.455555,125.456775 737.148089,124.853572 737.796769,124.204972 L757.213782,104.786047 C764.177628,97.8194401 765.032037,86.8195824 759.227481,78.861196 C749.089507,64.9690871 738.014648,52.0146484 726,40 C713.985352,27.9853516 701.030913,16.9104933 687.136684,6.77542533 L687.138804,6.77251877 C679.180418,0.967963192 668.18056,1.82237152 661.213953,8.78621834 L641.795028,28.2032313 C633.985023,36.0141978 633.985802,48.6774974 641.796769,56.4875025 C642.445449,57.1361025 643.137983,57.7393058 643.869466,58.2928399 Z" id="Path-Copy-2"></path>
                </g>
            </g>
        </g>
    </g>
</svg>